<?xml version="1.0" standalone="no"?>
<!DOCTYPE svg PUBLIC "-//W3C//DTD SVG 20010904//EN"
 "http://www.w3.org/TR/2001/REC-SVG-20010904/DTD/svg10.dtd">
<svg version="1.0" xmlns="http://www.w3.org/2000/svg"
 width="512.000000pt" height="512.000000pt" viewBox="0 0 512.000000 512.000000"
 preserveAspectRatio="xMidYMid meet">
<metadata>
Created by potrace 1.14, written by Peter Selinger 2001-2017
</metadata>
<g transform="translate(0.000000,512.000000) scale(0.100000,-0.100000)"
fill="#000000" stroke="none">
<path d="M187 3013 c-4 -3 -7 -87 -7 -185 l0 -178 95 0 95 0 0 -90 0 -90 90 0
90 0 0 -90 0 -90 90 0 90 0 0 -95 0 -95 638 2 637 3 3 93 3 92 89 0 90 0 0 90
0 90 90 0 90 0 0 180 0 180 185 0 185 0 0 -180 0 -180 90 0 90 0 0 -90 0 -90
90 0 90 0 0 -95 0 -95 638 2 637 3 3 93 3 92 89 0 90 0 0 90 0 90 90 0 90 0 0
90 0 89 93 3 92 3 0 180 0 180 -2366 3 c-1301 1 -2369 -1 -2372 -5z m543 -273
l0 -90 90 0 90 0 0 90 0 90 95 0 95 0 0 -90 0 -90 90 0 90 0 0 -90 0 -90 90 0
90 0 0 -90 0 -90 -90 0 -90 0 0 90 0 90 -90 0 -90 0 0 -90 0 -90 -95 0 -95 0
0 90 0 90 -90 0 -90 0 0 90 0 90 -90 0 -90 0 0 90 0 90 90 0 90 0 0 -90z
m2580 0 l0 -90 90 0 90 0 0 90 0 90 90 0 90 0 0 -90 0 -90 90 0 90 0 0 -90 0
-90 95 0 95 0 0 -90 0 -90 -95 0 -95 0 0 90 0 90 -90 0 -90 0 0 -90 0 -90 -90
0 -90 0 0 90 0 90 -90 0 -90 0 0 90 0 90 -95 0 -95 0 0 90 0 90 95 0 95 0 0
-90z"/>
<path d="M910 2560 l0 -90 95 0 95 0 0 90 0 90 -95 0 -95 0 0 -90z"/>
<path d="M3490 2560 l0 -90 90 0 90 0 0 90 0 90 -90 0 -90 0 0 -90z"/>
</g>
</svg>
